<?xml version="1.0" standalone="no"?>
<!DOCTYPE svg PUBLIC "-//W3C//DTD SVG 20010904//EN"
 "http://www.w3.org/TR/2001/REC-SVG-20010904/DTD/svg10.dtd">
<svg version="1.0" xmlns="http://www.w3.org/2000/svg"
 width="640.000000pt" height="640.000000pt" viewBox="0 0 640.000000 640.000000"
 preserveAspectRatio="xMidYMid meet">

<g transform="translate(0.000000,640.000000) scale(0.100000,-0.100000)"
fill="#5B2C90" stroke="none">
<path d="M0 3200 l0 -3200 3200 0 3200 0 0 3200 0 3200 -3200 0 -3200 0 0
-3200z m5150 1106 l0 -43 -41 1 c-53 1 -79 -28 -79 -90 l0 -43 53 -3 52 -3 3
-42 3 -43 -55 0 -56 0 0 -185 0 -185 -50 0 -50 0 0 185 0 185 -40 0 -40 0 0
45 0 45 39 0 39 0 4 70 c3 56 8 74 28 96 35 37 76 53 138 54 l52 0 0 -44z
m-2625 4 c37 -41 -11 -101 -70 -86 -65 16 -49 106 19 106 20 0 40 -8 51 -20z
m-778 -12 c5 -7 50 -115 99 -240 49 -125 92 -228 95 -228 3 0 10 15 16 33 6
17 49 124 95 237 l84 205 72 3 72 3 0 -321 0 -321 -52 3 -53 3 0 251 0 251
-39 -101 c-22 -56 -67 -168 -101 -251 l-61 -150 -38 0 -38 0 -99 245 -99 245
0 -248 0 -247 -50 0 -50 0 0 320 0 320 69 0 c43 0 72 -5 78 -12z m3593 -103
l0 -65 55 0 55 0 0 -45 0 -45 -55 0 -55 0 0 -128 c0 -116 2 -131 20 -147 14
-13 29 -16 55 -12 l36 6 -3 -42 c-3 -39 -6 -43 -39 -51 -51 -13 -107 1 -141
34 l-28 28 0 156 0 156 -40 0 -40 0 0 45 0 45 40 0 40 0 0 49 c0 49 0 49 43
64 23 9 45 16 50 16 4 1 7 -28 7 -64z m-2368 -76 c13 -7 18 -21 18 -54 0 -50
-3 -52 -49 -29 -65 32 -149 2 -183 -67 -68 -131 52 -261 189 -204 19 8 37 15
39 15 2 0 4 -20 4 -44 0 -40 -3 -45 -32 -57 -52 -22 -165 -17 -215 9 -71 37
-113 111 -113 201 0 157 116 261 274 245 27 -3 58 -10 68 -15z m362 15 c12 -5
16 -20 16 -59 l0 -53 -30 11 c-37 14 -71 -1 -104 -46 -19 -25 -21 -45 -24
-173 l-3 -144 -50 0 -49 0 0 230 0 230 50 0 50 0 0 -47 0 -48 22 37 c29 50 83
77 122 62z m420 -27 c118 -65 144 -262 49 -368 -54 -60 -86 -73 -178 -74 -92
0 -140 21 -187 82 -75 97 -51 276 45 345 72 51 193 58 271 15z m467 12 c22
-11 21 -96 -1 -90 -103 27 -151 24 -174 -12 -17 -27 4 -49 73 -76 34 -13 78
-39 99 -57 34 -29 37 -36 37 -84 0 -47 -3 -55 -37 -85 -20 -19 -56 -39 -80
-46 -46 -12 -136 -8 -180 10 -25 10 -28 15 -28 61 0 27 2 50 4 50 2 0 23 -9
47 -20 78 -35 169 -22 169 25 0 29 -22 45 -102 75 -76 28 -108 66 -108 129 0
26 7 56 16 69 17 25 63 51 109 63 34 9 132 1 156 -12z m407 10 c64 -13 125
-65 148 -124 12 -34 15 -64 12 -124 -4 -67 -9 -87 -33 -121 -39 -56 -101 -91
-174 -97 -169 -16 -284 115 -251 287 18 94 82 162 171 179 62 12 72 12 127 0z
m-2100 -231 l2 -228 -55 0 -55 0 0 223 c0 123 3 227 7 231 4 4 28 6 53 4 l45
-3 3 -227z m-374 -975 l311 -482 3 485 2 484 100 0 100 0 0 -635 0 -636 -117
3 -116 3 -111 171 c-61 94 -203 312 -315 485 -113 173 -207 317 -210 321 -3 4
-5 -216 -3 -487 l3 -495 -106 0 -105 0 0 635 0 636 126 -3 127 -3 311 -482z
m1516 397 l0 -90 -235 0 -235 0 0 -180 0 -180 215 0 215 0 0 -90 0 -90 -215 0
-215 0 0 -185 0 -185 250 0 250 0 0 -90 0 -90 -360 0 -360 0 0 635 0 635 345
0 345 0 0 -90z m1070 0 l0 -90 -182 -2 -183 -3 -3 -542 -2 -543 -105 0 -105 0
0 545 0 545 -182 0 -183 0 1 83 c1 45 2 85 3 90 1 4 213 7 471 7 l470 0 0 -90z
m-3428 -997 c64 -64 39 -162 -50 -193 -37 -13 -47 -13 -84 0 -27 10 -50 27
-65 49 -39 58 -26 116 37 159 49 34 120 27 162 -15z"/>
<path d="M3570 4032 c-82 -41 -95 -190 -22 -256 30 -26 101 -32 140 -12 42 22
62 63 62 131 0 72 -22 119 -65 139 -43 21 -72 20 -115 -2z"/>
<path d="M4508 4039 c-58 -22 -92 -128 -65 -204 35 -99 176 -115 222 -25 23
44 20 145 -5 185 -30 49 -91 66 -152 44z"/>
</g>
</svg>
